<?xml version="1.0" encoding="UTF-8" standalone="no"?>
<!DOCTYPE svg PUBLIC "-//W3C//DTD SVG 1.1//EN" "http://www.w3.org/Graphics/SVG/1.1/DTD/svg11.dtd">
<svg width="100%" height="100%" viewBox="0 0 200 200" version="1.1" xmlns="http://www.w3.org/2000/svg" xmlns:xlink="http://www.w3.org/1999/xlink" xml:space="preserve" xmlns:serif="http://www.serif.com/" style="fill-rule:evenodd;clip-rule:evenodd;stroke-linejoin:round;stroke-miterlimit:2;">
    <g transform="matrix(1,0,0,1,-1640,0)">
        <g id="вк-аватар" transform="matrix(0.125786,0,0,0.5,1433.71,0)">
            <rect x="1640" y="0" width="1590" height="400" style="fill:none;"/>
            <g transform="matrix(3.52697,0,0,0.887289,1887.55,54.4022)">
                <g transform="matrix(8.10496,0,0,8.10496,146.487,112.417)">
                    <path d="M0,5.364L-0.669,6.03L-1.34,6.03L-2.01,5.364L-2.01,0.004L-1.34,-0.666L-0.669,-0.666L0,0.004L0,5.364Z" style="fill:rgb(63,81,181);"/>
                </g>
                <g transform="matrix(8.10496,0,0,8.10496,124.768,112.448)">
                    <path d="M0,-2.006L0.67,-1.339L0.67,-0.67L0,0L-5.356,0L-6.026,-0.67L-6.026,-1.339L-5.356,-2.006L0,-2.006Z" style="fill:rgb(63,81,181);"/>
                </g>
                <g transform="matrix(8.10496,0,0,8.10496,124.768,172.151)">
                    <path d="M0,-2.006L0.67,-1.34L0.67,-0.666L0,0L-5.356,0L-6.026,-0.666L-6.026,-1.34L-5.356,-2.006L0,-2.006Z" style="fill:rgb(63,81,181);"/>
                </g>
                <g transform="matrix(8.10496,0,0,8.10496,146.487,172.181)">
                    <path d="M0,5.356L-0.669,6.026L-1.34,6.026L-2.01,5.356L-2.01,-0.003L-1.34,-0.67L-0.669,-0.67L0,-0.003L0,5.356Z" style="fill:rgb(63,81,181);"/>
                </g>
                <g transform="matrix(8.10496,0,0,8.10496,124.768,231.85)">
                    <path d="M0,-2.006L0.67,-1.336L0.67,-0.666L0,0L-5.356,0L-6.026,-0.666L-6.026,-1.336L-5.356,-2.006L0,-2.006Z" style="fill:rgb(63,81,181);"/>
                </g>
                <g transform="matrix(8.10496,0,0,8.10496,163.852,112.417)">
                    <path d="M0,5.364L0.67,6.03L1.34,6.03L2.01,5.364L2.01,0.004L1.34,-0.666L0.67,-0.666L0,0.004L0,5.364Z" style="fill:rgb(63,81,181);"/>
                </g>
                <g transform="matrix(8.10496,0,0,8.10496,185.547,112.448)">
                    <path d="M0,-2.006L-0.667,-1.339L-0.667,-0.67L0,0L5.359,0L6.029,-0.67L6.029,-1.339L5.359,-2.006L0,-2.006Z" style="fill:rgb(63,81,181);"/>
                </g>
                <g transform="matrix(8.10496,0,0,8.10496,163.852,172.181)">
                    <path d="M0,5.356L0.67,6.026L1.34,6.026L2.01,5.356L2.01,-0.003L1.34,-0.67L0.67,-0.67L0,-0.003L0,5.356Z" style="fill:rgb(63,81,181);"/>
                </g>
                <g transform="matrix(8.10496,0,0,8.10496,185.547,231.85)">
                    <path d="M0,-2.006L-0.667,-1.336L-0.667,-0.666L0,0L5.359,0L6.029,-0.666L6.029,-1.336L5.359,-2.006L0,-2.006Z" style="fill:rgb(63,81,181);"/>
                </g>
                <g transform="matrix(8.10496,0,0,8.10496,253.058,66.0189)">
                    <path d="M0,24.18L-21.854,24.18L-24.155,21.855L-24.155,-0L0,-0L0,24.18ZM4.6,5.191L4.6,2.891L2.3,2.891L2.3,-2.286L-2.877,-2.286L-2.877,-4.586L-5.177,-4.586L-5.177,-2.286L-6.904,-2.286L-6.904,-4.586L-9.204,-4.586L-9.204,-2.286L-10.927,-2.286L-10.927,-4.586L-13.228,-4.586L-13.228,-2.286L-14.955,-2.286L-14.955,-4.586L-17.254,-4.586L-17.254,-2.286L-18.981,-2.286L-18.981,-4.586L-21.267,-4.586L-21.267,-2.286L-26.455,-2.286L-26.455,2.891L-28.755,2.891L-28.755,5.127L-26.455,5.127L-26.455,6.918L-28.755,6.918L-28.755,9.219L-26.455,9.219L-26.455,10.945L-28.755,10.945L-28.755,13.256L-26.455,13.256L-26.455,14.983L-28.755,14.983L-28.755,17.283L-26.455,17.283L-26.455,18.988L-28.755,18.988L-28.755,21.288L-26.455,21.288L-26.455,22.632L-22.621,26.466L-21.267,26.466L-21.267,28.766L-18.967,28.766L-18.967,26.466L-17.24,26.466L-17.24,28.766L-14.94,28.766L-14.94,26.466L-13.213,26.466L-13.213,28.766L-10.913,28.766L-10.913,26.466L-9.189,26.466L-9.189,28.766L-6.89,28.766L-6.89,26.466L-5.163,26.466L-5.163,28.766L-2.863,28.766L-2.863,26.466L2.314,26.466L2.314,21.292L4.615,21.292L4.615,18.988L2.314,18.988L2.314,17.269L4.615,17.269L4.615,14.969L2.314,14.969L2.314,13.256L4.615,13.256L4.615,10.956L2.314,10.956L2.314,9.229L4.615,9.229L4.615,6.915L2.314,6.915L2.314,5.191L4.6,5.191Z" style="fill:rgb(63,81,181);"/>
                </g>
            </g>
        </g>
    </g>
</svg>
